<svg width="50" height="50" viewBox="0 0 50 50" fill="none" xmlns="http://www.w3.org/2000/svg">
<path d="M25 0.999756C11.745 0.999756 1 11.7448 1 24.9998C1 38.2548 11.745 48.9998 25 48.9998C38.255 48.9998 49 38.2548 49 24.9998C49 11.7448 38.255 0.999756 25 0.999756ZM34.7625 20.6598C34.7725 20.8648 34.775 21.0698 34.775 21.2698C34.775 27.5198 30.0225 34.7223 21.3275 34.7223C18.7582 34.7265 16.2424 33.9886 14.0825 32.5973C14.45 32.6423 14.8275 32.6598 15.21 32.6598C17.425 32.6598 19.4625 31.9073 21.08 30.6373C20.0943 30.6179 19.1392 30.2915 18.3478 29.7036C17.5564 29.1156 16.9681 28.2954 16.665 27.3573C17.3729 27.4919 18.1021 27.4636 18.7975 27.2748C17.7276 27.0584 16.7655 26.4787 16.0743 25.6339C15.383 24.7891 15.0053 23.7313 15.005 22.6398V22.5823C15.6425 22.9348 16.3725 23.1498 17.1475 23.1748C16.1445 22.5071 15.4345 21.4814 15.1626 20.3076C14.8908 19.1337 15.0776 17.9004 15.685 16.8598C16.8724 18.3198 18.3532 19.5141 20.0314 20.3655C21.7097 21.2169 23.5481 21.7064 25.4275 21.8023C25.1886 20.788 25.2914 19.7233 25.72 18.7735C26.1487 17.8238 26.8791 17.0422 27.7977 16.5504C28.7163 16.0586 29.7717 15.8841 30.7997 16.0539C31.8278 16.2238 32.7709 16.7286 33.4825 17.4898C34.5404 17.2804 35.5549 16.8924 36.4825 16.3423C36.1299 17.4376 35.3917 18.3677 34.405 18.9598C35.3421 18.8469 36.2572 18.5949 37.12 18.2123C36.4862 19.162 35.6878 19.9909 34.7625 20.6598Z" fill="white"/>
</svg>
