<svg width="50" height="50" viewBox="0 0 50 50" fill="none" xmlns="http://www.w3.org/2000/svg">
<path d="M29.0076 24.5823L23.3926 21.9623C22.9026 21.7348 22.5001 21.9898 22.5001 22.5323V27.4673C22.5001 28.0098 22.9026 28.2648 23.3926 28.0373L29.0051 25.4173C29.4976 25.1873 29.4976 24.8123 29.0076 24.5823ZM25.0001 0.999756C11.7451 0.999756 1.00006 11.7448 1.00006 24.9998C1.00006 38.2548 11.7451 48.9998 25.0001 48.9998C38.2551 48.9998 49.0001 38.2548 49.0001 24.9998C49.0001 11.7448 38.2551 0.999756 25.0001 0.999756ZM25.0001 34.7498C12.7151 34.7498 12.5001 33.6423 12.5001 24.9998C12.5001 16.3573 12.7151 15.2498 25.0001 15.2498C37.2851 15.2498 37.5001 16.3573 37.5001 24.9998C37.5001 33.6423 37.2851 34.7498 25.0001 34.7498Z" fill="white"/>
</svg>
